<?xml version="1.0" standalone="no"?>
<!DOCTYPE svg PUBLIC "-//W3C//DTD SVG 20010904//EN"
 "http://www.w3.org/TR/2001/REC-SVG-20010904/DTD/svg10.dtd">
<svg version="1.0" xmlns="http://www.w3.org/2000/svg"
 width="1080.000000pt" height="1080.000000pt" viewBox="0 0 1080.000000 1080.000000"
 preserveAspectRatio="xMidYMid meet">
<metadata>
Created by potrace 1.14, written by Peter Selinger 2001-2017
</metadata>
<g transform="translate(0.000000,1080.000000) scale(0.100000,-0.100000)"
fill="#000000" stroke="none">
<path d="M3014 10245 c-156 -38 -304 -181 -354 -343 -17 -54 -20 -93 -20 -242
0 -205 13 -265 78 -366 70 -107 161 -175 286 -213 l68 -21 2327 0 c2527 0
2368 -3 2487 55 112 55 216 178 254 303 29 94 29 390 0 484 -51 164 -198 305
-358 344 -81 19 -4690 18 -4768 -1z m4700 -45 c186 -23 346 -173 385 -358 17
-79 14 -300 -5 -382 -39 -173 -201 -317 -382 -341 -88 -11 -4536 -11 -4624 0
-181 24 -343 168 -382 341 -19 82 -22 303 -5 382 40 189 209 344 394 361 88 8
4554 6 4619 -3z"/>
<path d="M1385 10051 c-113 -30 -216 -115 -268 -220 -30 -61 -32 -73 -32 -171
0 -99 2 -109 34 -172 41 -82 113 -153 196 -193 55 -27 70 -30 165 -30 99 0
109 2 172 34 82 41 153 113 193 196 27 55 30 70 30 165 0 99 -2 109 -34 172
-41 83 -120 160 -198 195 -62 27 -198 40 -258 24z"/>
<path d="M9225 10051 c-113 -30 -216 -115 -268 -220 -30 -61 -32 -73 -32 -171
0 -99 2 -109 34 -172 41 -82 113 -153 196 -193 55 -27 70 -30 165 -30 99 0
109 2 172 34 82 41 153 113 193 196 27 55 30 70 30 165 0 99 -2 109 -34 172
-41 83 -120 160 -198 195 -62 27 -198 40 -258 24z"/>
<path d="M8435 9930 c-137 -53 -213 -210 -171 -354 24 -81 108 -167 185 -190
73 -21 129 -20 193 4 70 26 117 66 153 131 27 48 30 63 30 139 0 76 -3 91 -30
139 -36 65 -83 105 -153 131 -66 25 -142 25 -207 0z m199 -44 c18 -7 50 -29
71 -47 104 -91 104 -267 0 -358 -53 -46 -93 -61 -165 -61 -101 0 -178 49 -219
140 -40 88 -16 216 51 277 64 59 184 82 262 49z"/>
<path d="M3400 6200 l0 -2600 -1700 0 -1700 0 0 -1800 0 -1800 5400 0 5400 0
0 1800 0 1800 -1700 0 -1700 0 0 2600 0 2600 -2000 0 -2000 0 0 -2600z m3800
-100 l0 -2500 -1800 0 -1800 0 0 65 c0 36 2 65 5 65 4 0 20 -7 37 -16 59 -30
150 3 183 66 13 25 15 117 15 622 0 571 -1 594 -20 625 -10 18 -33 39 -49 48
-39 20 -120 20 -149 -1 l-22 -15 0 1770 0 1771 1800 0 1800 0 0 -2500z m-3464
-1065 c66 -27 65 -18 62 -655 l-3 -568 -24 -26 c-45 -48 -132 -40 -161 13 -15
29 -14 1162 1 1195 10 22 59 55 82 56 4 0 23 -7 43 -15z m-2096 -2415 c0 -43
3 -50 20 -50 17 0 20 -7 20 -50 0 -38 4 -50 15 -50 11 0 15 -11 15 -38 0 -37
1 -37 52 -50 63 -15 166 -62 211 -96 41 -31 57 -33 57 -6 0 16 7 20 35 20 24
0 35 5 35 15 0 8 7 15 16 15 9 0 18 9 21 20 3 11 12 20 19 20 8 0 14 7 14 15
0 8 9 15 20 15 14 0 20 7 20 21 0 14 5 19 17 17 26 -5 29 -38 4 -38 -17 0 -21
-6 -21 -35 0 -28 -4 -35 -20 -35 -16 0 -20 -7 -20 -35 0 -24 -5 -35 -15 -35
-10 0 -15 -10 -15 -31 0 -22 -5 -32 -20 -36 -11 -3 -20 -8 -20 -11 0 -4 20
-47 45 -97 25 -49 51 -114 58 -142 11 -51 13 -53 44 -53 26 0 33 -4 33 -20 0
-18 7 -20 55 -20 42 0 55 -3 55 -15 0 -11 12 -15 50 -15 43 0 50 -3 50 -20 0
-17 -7 -20 -50 -20 -38 0 -50 -4 -50 -15 0 -12 -13 -15 -55 -15 -48 0 -55 -2
-55 -20 0 -16 -7 -20 -33 -20 -31 0 -33 -2 -44 -52 -7 -29 -33 -93 -58 -143
-25 -49 -45 -93 -45 -96 0 -4 9 -9 20 -12 15 -4 20 -14 20 -36 0 -21 5 -31 15
-31 10 0 15 -11 15 -35 0 -28 4 -35 20 -35 16 0 20 -7 20 -35 0 -29 4 -35 21
-35 25 0 22 -33 -4 -38 -12 -2 -17 3 -17 17 0 14 -6 21 -20 21 -11 0 -20 7
-20 15 0 8 -6 15 -14 15 -7 0 -16 9 -19 20 -3 11 -12 20 -21 20 -9 0 -16 7
-16 15 0 10 -11 15 -35 15 -28 0 -35 4 -35 20 0 27 -16 25 -57 -6 -47 -36
-172 -92 -222 -100 -40 -6 -41 -8 -41 -45 0 -32 -3 -39 -20 -39 -17 0 -20 -7
-20 -50 0 -38 -4 -50 -15 -50 -11 0 -15 -12 -15 -50 0 -43 -3 -50 -20 -50 -17
0 -20 7 -20 50 0 43 -3 50 -20 50 -17 0 -20 7 -20 50 0 38 -4 50 -15 50 -11 0
-15 11 -15 39 0 37 -1 39 -41 45 -50 8 -175 64 -222 100 -41 31 -57 33 -57 6
0 -16 -7 -20 -35 -20 -24 0 -35 -5 -35 -15 0 -8 -7 -15 -16 -15 -9 0 -18 -9
-21 -20 -3 -11 -12 -20 -19 -20 -8 0 -14 -7 -14 -15 0 -8 -9 -15 -20 -15 -14
0 -20 -7 -20 -21 0 -14 -5 -19 -17 -17 -26 5 -29 38 -4 38 17 0 21 6 21 35 0
28 4 35 20 35 16 0 20 7 20 35 0 24 5 35 15 35 10 0 15 10 15 31 0 22 5 32 20
36 11 3 20 8 20 12 0 3 -20 47 -45 96 -25 50 -51 114 -58 143 -11 50 -13 52
-44 52 -26 0 -33 4 -33 20 0 18 -7 20 -55 20 -42 0 -55 3 -55 15 0 11 -12 15
-50 15 -43 0 -50 3 -50 20 0 17 7 20 50 20 38 0 50 4 50 15 0 12 13 15 55 15
48 0 55 2 55 20 0 16 7 20 33 20 31 0 33 2 44 53 7 28 33 93 58 142 25 50 45
93 45 97 0 3 -9 8 -20 11 -15 4 -20 14 -20 36 0 21 -5 31 -15 31 -10 0 -15 11
-15 35 0 28 -4 35 -20 35 -16 0 -20 7 -20 35 0 29 -4 35 -21 35 -14 0 -19 5
-17 17 5 26 38 29 38 4 0 -14 6 -21 20 -21 11 0 20 -7 20 -15 0 -8 6 -15 14
-15 7 0 16 -9 19 -20 3 -11 12 -20 21 -20 9 0 16 -7 16 -15 0 -10 11 -15 35
-15 28 0 35 -4 35 -20 0 -27 16 -25 57 6 45 34 148 81 211 96 51 13 52 13 52
50 0 31 4 38 20 38 17 0 20 7 20 50 0 38 4 50 15 50 11 0 15 12 15 50 0 43 3
50 20 50 17 0 20 -7 20 -50z m7560 0 c0 -43 3 -50 20 -50 17 0 20 -7 20 -50 0
-38 4 -50 15 -50 11 0 15 -11 15 -38 0 -37 1 -37 52 -50 63 -15 166 -62 211
-96 41 -31 57 -33 57 -6 0 16 7 20 35 20 24 0 35 5 35 15 0 8 7 15 16 15 9 0
18 9 21 20 3 11 12 20 19 20 8 0 14 7 14 15 0 8 9 15 20 15 14 0 20 7 20 21 0
25 33 22 38 -4 2 -12 -3 -17 -17 -17 -17 0 -21 -6 -21 -35 0 -28 -4 -35 -20
-35 -16 0 -20 -7 -20 -35 0 -24 -5 -35 -15 -35 -10 0 -15 -10 -15 -31 0 -22
-5 -32 -20 -36 -11 -3 -20 -8 -20 -11 0 -4 20 -47 45 -97 25 -49 51 -114 58
-142 11 -51 13 -53 44 -53 26 0 33 -4 33 -20 0 -18 7 -20 55 -20 42 0 55 -3
55 -15 0 -11 12 -15 50 -15 43 0 50 -3 50 -20 0 -17 -7 -20 -50 -20 -38 0 -50
-4 -50 -15 0 -12 -13 -15 -55 -15 -48 0 -55 -2 -55 -20 0 -16 -7 -20 -33 -20
-31 0 -33 -2 -44 -52 -7 -29 -33 -93 -58 -143 -25 -49 -45 -93 -45 -96 0 -4 9
-9 20 -12 15 -4 20 -14 20 -36 0 -21 5 -31 15 -31 10 0 15 -11 15 -35 0 -28 4
-35 20 -35 16 0 20 -7 20 -35 0 -29 4 -35 21 -35 25 0 22 -33 -4 -38 -12 -2
-17 3 -17 17 0 14 -6 21 -20 21 -11 0 -20 7 -20 15 0 8 -6 15 -14 15 -7 0 -16
9 -19 20 -3 11 -12 20 -21 20 -9 0 -16 7 -16 15 0 10 -11 15 -35 15 -28 0 -35
4 -35 20 0 27 -16 25 -57 -6 -47 -36 -172 -92 -222 -100 -40 -6 -41 -8 -41
-45 0 -32 -3 -39 -20 -39 -17 0 -20 -7 -20 -50 0 -38 -4 -50 -15 -50 -11 0
-15 -12 -15 -50 0 -43 -3 -50 -20 -50 -17 0 -20 7 -20 50 0 43 -3 50 -20 50
-17 0 -20 7 -20 50 0 38 -4 50 -15 50 -11 0 -15 11 -15 39 0 37 -1 39 -41 45
-50 8 -175 64 -222 100 -41 31 -57 33 -57 6 0 -16 -7 -20 -35 -20 -24 0 -35
-5 -35 -15 0 -8 -7 -15 -16 -15 -9 0 -18 -9 -21 -20 -3 -11 -12 -20 -19 -20
-8 0 -14 -7 -14 -15 0 -8 -9 -15 -20 -15 -14 0 -20 -7 -20 -21 0 -14 -5 -19
-17 -17 -26 5 -29 38 -4 38 17 0 21 6 21 35 0 28 4 35 20 35 16 0 20 7 20 35
0 24 5 35 15 35 10 0 15 10 15 31 0 22 5 32 20 36 11 3 20 8 20 12 0 3 -20 47
-45 96 -25 50 -51 114 -58 143 -11 50 -13 52 -44 52 -26 0 -33 4 -33 20 0 18
-7 20 -55 20 -42 0 -55 3 -55 15 0 11 -12 15 -50 15 -43 0 -50 3 -50 20 0 17
7 20 50 20 38 0 50 4 50 15 0 12 13 15 55 15 48 0 55 2 55 20 0 16 7 20 33 20
31 0 33 2 44 53 7 28 33 93 58 142 25 50 45 93 45 97 0 3 -9 8 -20 11 -15 4
-20 14 -20 36 0 21 -5 31 -15 31 -10 0 -15 11 -15 35 0 28 -4 35 -20 35 -16 0
-20 7 -20 35 0 29 -4 35 -21 35 -25 0 -22 33 4 38 12 2 17 -3 17 -17 0 -14 6
-21 20 -21 11 0 20 -7 20 -15 0 -8 6 -15 14 -15 7 0 16 -9 19 -20 3 -11 12
-20 21 -20 9 0 16 -7 16 -15 0 -10 11 -15 35 -15 28 0 35 -4 35 -20 0 -27 16
-25 57 6 45 34 148 81 211 96 51 13 52 13 52 50 0 31 4 38 20 38 17 0 20 7 20
50 0 38 4 50 15 50 11 0 15 12 15 50 0 43 3 50 20 50 17 0 20 -7 20 -50z"/>
<path d="M4478 8484 c-178 -43 -329 -201 -367 -382 -16 -75 -16 -3929 0 -4004
37 -178 185 -334 358 -380 60 -15 146 -17 931 -17 785 0 871 2 931 17 173 46
321 202 358 380 16 75 16 3929 0 4004 -28 134 -139 282 -256 342 -112 56 -103
56 -1038 55 -698 -1 -871 -3 -917 -15z m1864 -112 c104 -42 188 -126 230 -230
l23 -57 0 -1985 0 -1985 -23 -56 c-30 -75 -83 -141 -148 -184 -113 -75 -38
-70 -1024 -70 -825 0 -888 1 -930 18 -110 43 -200 130 -242 236 l-23 56 -3
1940 c-2 1212 1 1964 7 2003 26 168 156 304 319 332 26 4 432 7 902 7 l855 -2
57 -23z"/>
<path d="M583 8486 c-172 -42 -321 -186 -365 -355 -16 -61 -17 -206 -17 -2031
0 -1825 1 -1970 17 -2031 46 -173 202 -321 380 -358 37 -8 375 -11 1103 -11
1167 0 1132 -2 1246 66 78 47 155 125 192 194 64 120 61 -8 61 2137 0 1387 -3
1967 -11 2005 -39 187 -200 348 -387 387 -80 17 -2149 14 -2219 -3z m2259
-114 c31 -12 75 -38 98 -56 59 -46 105 -108 132 -174 l23 -57 0 -1985 0 -1985
-23 -56 c-30 -75 -83 -141 -148 -184 -114 -76 -15 -70 -1224 -70 -1016 0
-1088 1 -1130 18 -110 43 -200 130 -242 236 l-23 56 -3 1940 c-2 1212 1 1964
7 2003 26 168 156 304 319 332 26 4 522 7 1102 6 l1055 -1 57 -23z"/>
<path d="M7983 8486 c-172 -42 -321 -186 -365 -355 -16 -61 -17 -206 -17
-2031 0 -1825 1 -1970 17 -2031 46 -173 202 -321 380 -358 37 -8 375 -11 1110
-10 966 0 1063 2 1123 17 122 32 232 118 303 235 70 118 66 -18 66 2146 0
1385 -3 1965 -11 2003 -39 187 -200 348 -387 387 -80 17 -2149 14 -2219 -3z
m2259 -114 c104 -42 188 -126 230 -230 l23 -57 0 -1985 0 -1985 -23 -56 c-30
-75 -83 -141 -148 -184 -114 -76 -15 -70 -1224 -70 -1016 0 -1088 1 -1130 18
-110 43 -200 130 -242 236 l-23 56 -3 1940 c-2 1212 1 1964 7 2003 26 168 156
304 319 332 26 4 522 7 1102 6 l1055 -1 57 -23z"/>
</g>
</svg>
